<svg width="36" height="36" viewBox="0 0 36 36" fill="none" xmlns="http://www.w3.org/2000/svg">
<path fill-rule="evenodd" clip-rule="evenodd" d="M22.4474 21.3826H23.6324L31.1174 28.8826L28.8824 31.1176L21.3824 23.6326V22.4476L20.9774 22.0276C19.2674 23.4976 17.0474 24.3826 14.6324 24.3826C9.24745 24.3826 4.88245 20.0176 4.88245 14.6326C4.88245 9.24757 9.24745 4.88257 14.6324 4.88257C20.0174 4.88257 24.3824 9.24757 24.3824 14.6326C24.3824 17.0476 23.4974 19.2676 22.0274 20.9776L22.4474 21.3826ZM7.88245 14.6326C7.88245 18.3676 10.8974 21.3826 14.6324 21.3826C18.3674 21.3826 21.3824 18.3676 21.3824 14.6326C21.3824 10.8976 18.3674 7.88257 14.6324 7.88257C10.8974 7.88257 7.88245 10.8976 7.88245 14.6326Z" fill="black" fill-opacity="0.54"/>
</svg>
